<?xml version="1.0" encoding="UTF-8"?>
<svg width="144px" height="59px" viewBox="0 0 144 59" version="1.1" xmlns="http://www.w3.org/2000/svg"
     xmlns:xlink="http://www.w3.org/1999/xlink">
    <!-- Generator: Sketch 51.2 (57519) - http://www.bohemiancoding.com/sketch -->
    <title>Artboard</title>
    <desc>Created with Sketch.</desc>
    <defs></defs>
    <g id="Artboard" stroke="none" stroke-width="1" fill="none" fill-rule="evenodd">
        <path
            d="M10.1060775,49.8964143 C10.1060775,50.6135494 9.92668147,51.2742334 9.56788403,51.8784861 C9.20908658,52.4827387 8.67754278,52.9674617 7.97323669,53.3326693 C7.26893059,53.697877 6.41181622,53.8804781 5.40186786,53.8804781 C4.40520829,53.8804781 3.51487243,53.7111571 2.73083357,53.37251 C1.9467947,53.0338628 1.31890859,52.5458199 0.847156398,51.9083665 C0.375404202,51.2709131 0.106310155,50.5272287 0.0398661834,49.6772908 L3.02982994,49.6772908 C3.09627391,50.2483428 3.32550218,50.7231057 3.71752161,51.1015936 C4.10954104,51.4800816 4.63111839,51.6693227 5.28226931,51.6693227 C5.86697625,51.6693227 6.31546633,51.5132818 6.627753,51.2011952 C6.94003966,50.8891087 7.09618065,50.4873863 7.09618065,49.9960159 C7.09618065,49.5577667 6.969939,49.1958846 6.71745191,48.9103586 C6.46496482,48.6248326 6.14603854,48.3957512 5.76066351,48.2231076 C5.37528847,48.0504639 4.84374468,47.8512627 4.16601617,47.625498 C3.28895575,47.3333319 2.57137162,47.0444901 2.01324226,46.7589641 C1.4551129,46.4734381 0.980045636,46.0584357 0.588026206,45.5139442 C0.196006775,44.9694528 3.54082838e-15,44.2589685 0,43.3824701 C3.54082838e-15,42.1739647 0.435201484,41.221119 1.30561751,40.5239044 C2.17603353,39.8266897 3.32881914,39.4780876 4.76400892,39.4780876 C6.25235388,39.4780876 7.43836098,39.8366498 8.32206579,40.5537849 C9.20577061,41.2709199 9.70741507,42.2270857 9.82701422,43.4223108 L6.79718428,43.4223108 C6.71745151,42.9176602 6.50483399,42.5026577 6.15932534,42.1772908 C5.81381669,41.851924 5.34207157,41.689243 4.74407583,41.689243 C4.22581285,41.689243 3.80722211,41.8253638 3.48829105,42.0976096 C3.16935999,42.3698553 3.00989685,42.7649376 3.00989685,43.2828685 C3.00989685,43.6945572 3.13281635,44.0365192 3.37865905,44.3087649 C3.62450174,44.5810107 3.93678372,44.803452 4.31551436,44.9760956 C4.69424499,45.1487392 5.20917805,45.3413004 5.86032897,45.5537849 C6.76396698,45.8725116 7.49816184,46.1713133 8.0629356,46.4501992 C8.62770936,46.7290851 9.10942092,47.1474076 9.50808475,47.7051793 C9.90674858,48.262951 10.1060775,48.9933554 10.1060775,49.8964143 Z M18.7570393,42.5458167 C20.0327636,42.5458167 21.0493411,42.9641392 21.8068023,43.8007968 C22.5642636,44.6374544 22.9429886,45.8127414 22.9429886,47.3266932 L22.9429886,53.7410359 L20.1523557,53.7410359 L20.1523557,47.6454183 C20.1523557,46.7689199 19.9264496,46.0883158 19.4746306,45.6035857 C19.0228116,45.1188555 18.4048919,44.876494 17.6208531,44.876494 C16.8235254,44.876494 16.1856729,45.1354556 15.7072763,45.6533865 C15.2288797,46.1713173 14.989685,46.9150018 14.989685,47.8844622 L14.989685,53.7410359 L12.179119,53.7410359 L12.179119,39 L14.989685,39 L14.989685,44.9163347 C15.2820384,44.172639 15.76375,43.5916356 16.4348341,43.1733068 C17.1059182,42.754978 17.8799789,42.5458167 18.7570393,42.5458167 Z M29.7401728,42.5657371 C30.6703884,42.5657371 31.4677041,42.7848584 32.1321439,43.2231076 C32.7965836,43.6613568 33.2683287,44.2523203 33.5473934,44.9960159 L33.5473934,42.7051793 L36.3380262,42.7051793 L36.3380262,53.7410359 L33.5473934,53.7410359 L33.5473934,51.4302789 C33.2683287,52.1739745 32.7965836,52.7682581 32.1321439,53.2131474 C31.4677041,53.6580368 30.6703884,53.8804781 29.7401728,53.8804781 C28.8099572,53.8804781 27.9727758,53.6547167 27.2286033,53.2031873 C26.4844308,52.7516578 25.9030548,52.0976138 25.4844578,51.2410359 C25.0658607,50.3844579 24.8565654,49.3784918 24.8565654,48.2231076 C24.8565654,47.0677233 25.0658607,46.0617573 25.4844578,45.2051793 C25.9030548,44.3486013 26.4844308,43.6945574 27.2286033,43.2430279 C27.9727758,42.7914984 28.8099572,42.5657371 29.7401728,42.5657371 Z M30.6172289,45.0159363 C29.7401685,45.0159363 29.0358729,45.301458 28.5043212,45.87251 C27.9727694,46.443562 27.7069975,47.2270867 27.7069975,48.2231076 C27.7069975,49.2191285 27.9727694,49.9993332 28.5043212,50.563745 C29.0358729,51.1281569 29.7401685,51.4103586 30.6172289,51.4103586 C31.4677117,51.4103586 32.1686851,51.1215168 32.7201701,50.5438247 C33.271655,49.9661326 33.5473934,49.1925679 33.5473934,48.2231076 C33.5473934,47.2403669 33.271655,46.4601623 32.7201701,45.8824701 C32.1686851,45.304778 31.4677117,45.0159363 30.6172289,45.0159363 Z M45.4873153,42.5657371 C46.4175309,42.5657371 47.2547124,42.7914984 47.9988849,43.2430279 C48.7430573,43.6945574 49.3244334,44.3486013 49.7430304,45.2051793 C50.1616274,46.0617573 50.3709228,47.0677233 50.3709228,48.2231076 C50.3709228,49.3784918 50.1616274,50.3844579 49.7430304,51.2410359 C49.3244334,52.0976138 48.7430573,52.7516578 47.9988849,53.2031873 C47.2547124,53.6547167 46.4175309,53.8804781 45.4873153,53.8804781 C44.5570997,53.8804781 43.7631062,53.6580368 43.1053108,53.2131474 C42.4475155,52.7682581 41.9790926,52.1739745 41.7000279,51.4302789 L41.7000279,59 L38.8894619,59 L38.8894619,42.7051793 L41.7000279,42.7051793 L41.7000279,44.9960159 C41.9790926,44.2523203 42.4475155,43.6613568 43.1053108,43.2231076 C43.7631062,42.7848584 44.5570997,42.5657371 45.4873153,42.5657371 Z M44.6102593,45.0159363 C43.7597764,45.0159363 43.0588031,45.304778 42.5073181,45.8824701 C41.9558331,46.4601623 41.6800948,47.2403669 41.6800948,48.2231076 C41.6800948,49.1925679 41.9558331,49.9661326 42.5073181,50.5438247 C43.0588031,51.1215168 43.7597764,51.4103586 44.6102593,51.4103586 C45.4873197,51.4103586 46.1916152,51.1281569 46.723167,50.563745 C47.2547188,49.9993332 47.5204907,49.2191285 47.5204907,48.2231076 C47.5204907,47.2270867 47.2547188,46.443562 46.723167,45.87251 C46.1916152,45.301458 45.4873197,45.0159363 44.6102593,45.0159363 Z M62.7493727,47.8047809 C62.7493727,48.0836667 62.7161512,48.4023886 62.6497073,48.7609562 L54.556872,48.7609562 C54.5967384,49.7436968 54.8625103,50.4674612 55.3541957,50.9322709 C55.8458811,51.3970807 56.4571565,51.6294821 57.1880401,51.6294821 C57.8391911,51.6294821 58.3807013,51.4701211 58.8125871,51.1513944 C59.2444729,50.8326677 59.5202113,50.4010651 59.6398104,49.8565737 L62.6098411,49.8565737 C62.4636644,50.6268299 62.1513824,51.317394 61.6729858,51.9282869 C61.1945892,52.5391797 60.5799917,53.0172625 59.8291748,53.3625498 C59.0783579,53.7078371 58.2444986,53.8804781 57.3275718,53.8804781 C56.2511795,53.8804781 55.2944006,53.6513967 54.4572066,53.1932271 C53.6200125,52.7350575 52.9688714,52.0810135 52.5037636,51.2310757 C52.0386558,50.3811378 51.8061054,49.3784918 51.8061054,48.2231076 C51.8061054,47.0677233 52.0386558,46.0617573 52.5037636,45.2051793 C52.9688714,44.3486013 53.6200125,43.6945574 54.4572066,43.2430279 C55.2944006,42.7914984 56.2511795,42.5657371 57.3275718,42.5657371 C58.4172529,42.5657371 59.3707096,42.7914984 60.1879704,43.2430279 C61.0052313,43.6945574 61.6364396,44.3154011 62.0816142,45.1055777 C62.5267888,45.8957543 62.7493727,46.7954797 62.7493727,47.8047809 Z M59.9188737,47.5258964 C59.9587401,46.6228375 59.7228675,45.9389133 59.211249,45.4741036 C58.6996304,45.0092938 58.0717443,44.7768924 57.3275718,44.7768924 C56.5701105,44.7768924 55.932258,45.0092938 55.413995,45.4741036 C54.895732,45.9389133 54.6100272,46.6228375 54.556872,47.5258964 L59.9188737,47.5258964 Z M78.7556454,49.8964143 C78.7556454,50.6135494 78.5762494,51.2742334 78.2174519,51.8784861 C77.8586545,52.4827387 77.3271107,52.9674617 76.6228046,53.3326693 C75.9184985,53.697877 75.0613841,53.8804781 74.0514357,53.8804781 C73.0547762,53.8804781 72.1644403,53.7111571 71.3804014,53.37251 C70.5963626,53.0338628 69.9684765,52.5458199 69.4967243,51.9083665 C69.0249721,51.2709131 68.755878,50.5272287 68.6894341,49.6772908 L71.6793978,49.6772908 C71.7458418,50.2483428 71.9750701,50.7231057 72.3670895,51.1015936 C72.7591089,51.4800816 73.2806863,51.6693227 73.9318372,51.6693227 C74.5165441,51.6693227 74.9650342,51.5132818 75.2773209,51.2011952 C75.5896075,50.8891087 75.7457485,50.4873863 75.7457485,49.9960159 C75.7457485,49.5577667 75.6195069,49.1958846 75.3670198,48.9103586 C75.1145327,48.6248326 74.7956064,48.3957512 74.4102314,48.2231076 C74.0248564,48.0504639 73.4933126,47.8512627 72.8155841,47.625498 C71.9385236,47.3333319 71.2209395,47.0444901 70.6628101,46.7589641 C70.1046808,46.4734381 69.6296135,46.0584357 69.2375941,45.5139442 C68.8455747,44.9694528 68.6495679,44.2589685 68.6495679,43.3824701 C68.6495679,42.1739647 69.0847694,41.221119 69.9551854,40.5239044 C70.8256014,39.8266897 71.978387,39.4780876 73.4135768,39.4780876 C74.9019218,39.4780876 76.0879289,39.8366498 76.9716337,40.5537849 C77.8553385,41.2709199 78.356983,42.2270857 78.4765821,43.4223108 L75.4467522,43.4223108 C75.3670194,42.9176602 75.1544019,42.5026577 74.8088932,42.1772908 C74.4633846,41.851924 73.9916395,41.689243 73.3936437,41.689243 C72.8753807,41.689243 72.45679,41.8253638 72.1378589,42.0976096 C71.8189279,42.3698553 71.6594647,42.7649376 71.6594647,43.2828685 C71.6594647,43.6945572 71.7823842,44.0365192 72.0282269,44.3087649 C72.2740696,44.5810107 72.5863516,44.803452 72.9650822,44.9760956 C73.3438129,45.1487392 73.8587459,45.3413004 74.5098968,45.5537849 C75.4135349,45.8725116 76.1477297,46.1713133 76.7125035,46.4501992 C77.2772772,46.7290851 77.7589888,47.1474076 78.1576526,47.7051793 C78.5563165,48.262951 78.7556454,48.9933554 78.7556454,49.8964143 Z M86.7288821,51.3306773 L86.7288821,53.7410359 L85.2538333,53.7410359 C84.0179754,53.7410359 83.071163,53.4422341 82.4133677,52.8446215 C81.7555724,52.247009 81.4266797,51.251003 81.4266797,49.8565737 L81.4266797,45.0756972 L79.8918316,45.0756972 L79.8918316,42.7051793 L81.4266797,42.7051793 L81.4266797,39.9760956 L84.2372456,39.9760956 L84.2372456,42.7051793 L86.708949,42.7051793 L86.708949,45.0756972 L84.2372456,45.0756972 L84.2372456,49.8964143 C84.2372456,50.4276255 84.3435544,50.7994677 84.5561751,51.0119522 C84.7687958,51.2244367 85.1275878,51.3306773 85.632562,51.3306773 L86.7288821,51.3306773 Z M93.0676052,42.5657371 C93.9978208,42.5657371 94.7951365,42.7848584 95.4595762,43.2231076 C96.124016,43.6613568 96.5957611,44.2523203 96.8748258,44.9960159 L96.8748258,42.7051793 L99.6654586,42.7051793 L99.6654586,53.7410359 L96.8748258,53.7410359 L96.8748258,51.4302789 C96.5957611,52.1739745 96.124016,52.7682581 95.4595762,53.2131474 C94.7951365,53.6580368 93.9978208,53.8804781 93.0676052,53.8804781 C92.1373896,53.8804781 91.3002082,53.6547167 90.5560357,53.2031873 C89.8118632,52.7516578 89.2304872,52.0976138 88.8118902,51.2410359 C88.3932931,50.3844579 88.1839978,49.3784918 88.1839978,48.2231076 C88.1839978,47.0677233 88.3932931,46.0617573 88.8118902,45.2051793 C89.2304872,44.3486013 89.8118632,43.6945574 90.5560357,43.2430279 C91.3002082,42.7914984 92.1373896,42.5657371 93.0676052,42.5657371 Z M93.9446613,45.0159363 C93.0676009,45.0159363 92.3633053,45.301458 91.8317536,45.87251 C91.3002018,46.443562 91.0344299,47.2270867 91.0344299,48.2231076 C91.0344299,49.2191285 91.3002018,49.9993332 91.8317536,50.563745 C92.3633053,51.1281569 93.0676009,51.4103586 93.9446613,51.4103586 C94.7951441,51.4103586 95.4961175,51.1215168 96.0476025,50.5438247 C96.5990874,49.9661326 96.8748258,49.1925679 96.8748258,48.2231076 C96.8748258,47.2403669 96.5990874,46.4601623 96.0476025,45.8824701 C95.4961175,45.304778 94.7951441,45.0159363 93.9446613,45.0159363 Z M105.02746,44.8167331 C105.439413,44.1128783 105.984245,43.558435 106.661974,43.1533865 C107.339702,42.7483379 108.097152,42.5458167 108.934346,42.5458167 L108.934346,45.5537849 L108.117089,45.5537849 C106.057326,45.5537849 105.02746,46.5099506 105.02746,48.4223108 L105.02746,53.7410359 L102.216894,53.7410359 L102.216894,42.7051793 L105.02746,42.7051793 L105.02746,44.8167331 Z M116.389323,51.3306773 L116.389323,53.7410359 L114.914274,53.7410359 C113.678416,53.7410359 112.731604,53.4422341 112.073808,52.8446215 C111.416013,52.247009 111.08712,51.251003 111.08712,49.8565737 L111.08712,45.0756972 L109.552272,45.0756972 L109.552272,42.7051793 L111.08712,42.7051793 L111.08712,39.9760956 L113.897686,39.9760956 L113.897686,42.7051793 L116.369389,42.7051793 L116.369389,45.0756972 L113.897686,45.0756972 L113.897686,49.8964143 C113.897686,50.4276255 114.003995,50.7994677 114.216616,51.0119522 C114.429236,51.2244367 114.788028,51.3306773 115.293003,51.3306773 L116.389323,51.3306773 Z M128.967103,42.7051793 L128.967103,53.7410359 L126.156537,53.7410359 L126.156537,51.5099602 C125.864184,52.2536558 125.382472,52.8346593 124.711388,53.252988 C124.040304,53.6713168 123.266244,53.8804781 122.389183,53.8804781 C121.113459,53.8804781 120.096881,53.4621556 119.33942,52.625498 C118.581959,51.7888404 118.203234,50.6201934 118.203234,49.1195219 L118.203234,42.7051793 L120.993867,42.7051793 L120.993867,48.8007968 C120.993867,49.6772952 121.219773,50.3578993 121.671592,50.8426295 C122.123411,51.3273597 122.734686,51.5697211 123.505436,51.5697211 C124.316053,51.5697211 124.96055,51.3107596 125.438946,50.7928287 C125.917343,50.2748978 126.156537,49.5312133 126.156537,48.561753 L126.156537,42.7051793 L128.967103,42.7051793 Z M138.116393,42.5657371 C139.046608,42.5657371 139.88379,42.7914984 140.627962,43.2430279 C141.372135,43.6945574 141.953511,44.3486013 142.372108,45.2051793 C142.790705,46.0617573 143,47.0677233 143,48.2231076 C143,49.3784918 142.790705,50.3844579 142.372108,51.2410359 C141.953511,52.0976138 141.372135,52.7516578 140.627962,53.2031873 C139.88379,53.6547167 139.046608,53.8804781 138.116393,53.8804781 C137.186177,53.8804781 136.392183,53.6580368 135.734388,53.2131474 C135.076593,52.7682581 134.60817,52.1739745 134.329105,51.4302789 L134.329105,59 L131.518539,59 L131.518539,42.7051793 L134.329105,42.7051793 L134.329105,44.9960159 C134.60817,44.2523203 135.076593,43.6613568 135.734388,43.2231076 C136.392183,42.7848584 137.186177,42.5657371 138.116393,42.5657371 Z M137.239336,45.0159363 C136.388854,45.0159363 135.68788,45.304778 135.136395,45.8824701 C134.58491,46.4601623 134.309172,47.2403669 134.309172,48.2231076 C134.309172,49.1925679 134.58491,49.9661326 135.136395,50.5438247 C135.68788,51.1215168 136.388854,51.4103586 137.239336,51.4103586 C138.116397,51.4103586 138.820692,51.1281569 139.352244,50.563745 C139.883796,49.9993332 140.149568,49.2191285 140.149568,48.2231076 C140.149568,47.2270867 139.883796,46.443562 139.352244,45.87251 C138.820692,45.301458 138.116397,45.0159363 137.239336,45.0159363 Z"
            id="Shape-Startup" fill="#442AB9"></path>
        <path
            d="M59.5749895,0.557776521 L53.2527168,9.25312387 C52.8956589,9.74677552 52.9191417,10.4881683 53.3093162,10.9549712 L70.4697706,31.5492149 C70.9755524,32.1502617 72.0220391,32.1502617 72.5302294,31.5492149 L89.6906838,10.9549712 C90.0808583,10.4881683 90.1043411,9.74677552 89.7472832,9.25312387 L83.4250105,0.557776521 C83.1757323,0.214844226 82.7590645,5.38911629e-05 82.3381817,5.38911629e-05 L60.6618183,5.38911629e-05 C60.2030019,-0.00421750754 59.8007849,0.245964416 59.5749895,0.557776521 Z M62.6373779,2.74595306 L68.3527124,2.74595306 L64.2745455,7.09362673 L62.6373779,2.74595306 Z M74.6472876,2.74595306 L80.3626221,2.74595306 L78.7254545,7.10827153 L74.6472876,2.74595306 Z M71.5,3.37567926 L76.4813487,8.69540124 L66.5186513,8.69540124 L71.5,3.37567926 Z M60.2806755,4.20494081 L61.9599916,8.69540124 L57.0207913,8.69540124 L60.2806755,4.20494081 Z M82.7193245,4.20494081 L85.9792087,8.69540124 L81.0400084,8.69540124 L82.7193245,4.20494081 Z M57.2465868,11.4413004 L63.0046719,11.4413004 L67.7463764,24.0413164 L57.2465868,11.4413004 Z M65.9117131,11.4413004 L77.0882869,11.4413004 L71.5,26.3295657 L65.9117131,11.4413004 Z M79.9953281,11.4413004 L85.7534132,11.4413004 L75.2536236,24.0266716 L79.9953281,11.4413004 Z"
            id="Fill-1" fill="#442AB9"></path>
    </g>
</svg>