<?xml version="1.0" encoding="UTF-8" standalone="no"?>
<!DOCTYPE svg PUBLIC "-//W3C//DTD SVG 1.1//EN" "http://www.w3.org/Graphics/SVG/1.1/DTD/svg11.dtd">
<svg width="100%" height="100%" viewBox="0 0 132 60" version="1.1" xmlns="http://www.w3.org/2000/svg" xmlns:xlink="http://www.w3.org/1999/xlink" xml:space="preserve" style="fill-rule:evenodd;clip-rule:evenodd;stroke-linejoin:round;stroke-miterlimit:1.41421;">
    <path d="M3.45,42.53C3.097,42.817 2.92,43.213 2.92,43.72C2.92,44.227 3.05,44.623 3.31,44.91C3.57,45.197 3.913,45.417 4.34,45.57C4.767,45.723 5.233,45.86 5.74,45.98C6.247,46.1 6.753,46.247 7.26,46.42C7.767,46.593 8.233,46.807 8.66,47.06C9.087,47.313 9.43,47.683 9.69,48.17C9.95,48.657 10.08,49.247 10.08,49.94C10.08,51.087 9.623,52.073 8.71,52.9C7.797,53.727 6.583,54.14 5.07,54.14C3.557,54.14 2.333,53.783 1.4,53.07C0.467,52.357 0,51.353 0,50.06L3,50.06C3.107,51.287 3.807,51.9 5.1,51.9C5.74,51.9 6.247,51.733 6.62,51.4C6.993,51.067 7.18,50.623 7.18,50.07C7.18,49.517 6.933,49.08 6.44,48.76C5.947,48.44 5.35,48.2 4.65,48.04C3.95,47.88 3.247,47.687 2.54,47.46C1.833,47.233 1.233,46.837 0.74,46.27C0.247,45.703 0,44.953 0,44.02C0,42.753 0.46,41.74 1.38,40.98C2.3,40.22 3.483,39.84 4.93,39.84C6.377,39.84 7.54,40.17 8.42,40.83C9.3,41.49 9.78,42.493 9.86,43.84L6.78,43.84C6.727,43.307 6.527,42.883 6.18,42.57C5.833,42.257 5.38,42.1 4.82,42.1C4.26,42.1 3.803,42.243 3.45,42.53ZM15.6,39.2L15.6,44.58C16.307,43.367 17.453,42.76 19.04,42.76C20.307,42.76 21.34,43.177 22.14,44.01C22.94,44.843 23.34,46 23.34,47.48L23.34,54L20.54,54L20.54,47.88C20.54,47.013 20.32,46.35 19.88,45.89C19.44,45.43 18.84,45.2 18.08,45.2C17.32,45.2 16.717,45.43 16.27,45.89C15.823,46.35 15.6,47.013 15.6,47.88L15.6,54L12.78,54L12.78,39.2L15.6,39.2ZM34.18,48.46C34.18,47.447 33.887,46.65 33.3,46.07C32.713,45.49 32.027,45.2 31.24,45.2C30.453,45.2 29.77,45.487 29.19,46.06C28.61,46.633 28.32,47.427 28.32,48.44C28.32,49.453 28.613,50.253 29.2,50.84C29.787,51.427 30.47,51.72 31.25,51.72C32.03,51.72 32.713,51.43 33.3,50.85C33.887,50.27 34.18,49.473 34.18,48.46ZM25.46,48.44C25.46,46.773 25.953,45.41 26.94,44.35C27.927,43.29 29.18,42.76 30.7,42.76C32.22,42.76 33.38,43.387 34.18,44.64L34.18,42.92L36.98,42.92L36.98,54L34.18,54L34.18,52.14C33.34,53.487 32.173,54.16 30.68,54.16C29.187,54.16 27.943,53.623 26.95,52.55C25.957,51.477 25.46,50.107 25.46,48.44ZM48.64,48.44C48.64,47.427 48.35,46.633 47.77,46.06C47.19,45.487 46.507,45.2 45.72,45.2C44.933,45.2 44.25,45.49 43.67,46.07C43.09,46.65 42.8,47.447 42.8,48.46C42.8,49.473 43.09,50.27 43.67,50.85C44.25,51.43 44.933,51.72 45.72,51.72C46.507,51.72 47.19,51.427 47.77,50.84C48.35,50.253 48.64,49.453 48.64,48.44ZM42.8,44.64C43.587,43.387 44.74,42.76 46.26,42.76C47.78,42.76 49.033,43.29 50.02,44.35C51.007,45.41 51.5,46.777 51.5,48.45C51.5,50.123 51.007,51.493 50.02,52.56C49.033,53.627 47.79,54.16 46.29,54.16C44.79,54.16 43.627,53.487 42.8,52.14L42.8,59.28L39.98,59.28L39.98,42.92L42.8,42.92L42.8,44.64ZM58.4,54.16C56.787,54.16 55.473,53.637 54.46,52.59C53.447,51.543 52.94,50.16 52.94,48.44C52.94,46.72 53.45,45.343 54.47,44.31C55.49,43.277 56.81,42.76 58.43,42.76C60.05,42.76 61.38,43.263 62.42,44.27C63.46,45.277 63.98,46.62 63.98,48.3C63.98,48.687 63.953,49.047 63.9,49.38L55.82,49.38C55.887,50.1 56.153,50.68 56.62,51.12C57.087,51.56 57.68,51.78 58.4,51.78C59.373,51.78 60.093,51.38 60.56,50.58L63.6,50.58C63.28,51.633 62.66,52.493 61.74,53.16C60.82,53.827 59.707,54.16 58.4,54.16ZM60.25,45.8C59.75,45.36 59.147,45.14 58.44,45.14C57.733,45.14 57.143,45.36 56.67,45.8C56.197,46.24 55.913,46.827 55.82,47.56L61.06,47.56C61.02,46.827 60.75,46.24 60.25,45.8ZM72.2,40.04L77.86,40.04C79.287,40.04 80.41,40.387 81.23,41.08C82.05,41.773 82.46,42.653 82.46,43.72C82.46,45.28 81.553,46.327 79.74,46.86C80.66,46.993 81.397,47.39 81.95,48.05C82.503,48.71 82.78,49.473 82.78,50.34C82.78,51.433 82.367,52.317 81.54,52.99C80.713,53.663 79.593,54 78.18,54L72.2,54L72.2,40.04ZM75.02,42.2L75.02,45.82L77.56,45.82C78.187,45.82 78.683,45.663 79.05,45.35C79.417,45.037 79.6,44.593 79.6,44.02C79.6,43.447 79.417,43 79.05,42.68C78.683,42.36 78.187,42.2 77.56,42.2L75.02,42.2ZM75.02,51.84L77.86,51.84C78.487,51.84 78.99,51.67 79.37,51.33C79.75,50.99 79.94,50.52 79.94,49.92C79.94,49.32 79.747,48.847 79.36,48.5C78.973,48.153 78.467,47.98 77.84,47.98L75.02,47.98L75.02,51.84ZM92.15,50.91C92.717,50.33 93,49.51 93,48.45C93,47.39 92.72,46.573 92.16,46C91.6,45.427 90.923,45.14 90.13,45.14C89.337,45.14 88.667,45.427 88.12,46C87.573,46.573 87.3,47.393 87.3,48.46C87.3,49.527 87.573,50.347 88.12,50.92C88.667,51.493 89.333,51.78 90.12,51.78C90.907,51.78 91.583,51.49 92.15,50.91ZM84.44,48.44C84.44,46.733 84.987,45.36 86.08,44.32C87.173,43.28 88.53,42.76 90.15,42.76C91.77,42.76 93.127,43.28 94.22,44.32C95.313,45.36 95.86,46.733 95.86,48.44C95.86,50.147 95.31,51.527 94.21,52.58C93.11,53.633 91.747,54.16 90.12,54.16C88.493,54.16 87.14,53.633 86.06,52.58C84.98,51.527 84.44,50.147 84.44,48.44ZM105.05,50.91C105.617,50.33 105.9,49.51 105.9,48.45C105.9,47.39 105.62,46.573 105.06,46C104.5,45.427 103.823,45.14 103.03,45.14C102.237,45.14 101.567,45.427 101.02,46C100.473,46.573 100.2,47.393 100.2,48.46C100.2,49.527 100.473,50.347 101.02,50.92C101.567,51.493 102.233,51.78 103.02,51.78C103.807,51.78 104.483,51.49 105.05,50.91ZM97.34,48.44C97.34,46.733 97.887,45.36 98.98,44.32C100.073,43.28 101.43,42.76 103.05,42.76C104.67,42.76 106.027,43.28 107.12,44.32C108.213,45.36 108.76,46.733 108.76,48.44C108.76,50.147 108.21,51.527 107.11,52.58C106.01,53.633 104.647,54.16 103.02,54.16C101.393,54.16 100.04,53.633 98.96,52.58C97.88,51.527 97.34,50.147 97.34,48.44ZM113.82,54L111,54L111,39.2L113.82,39.2L113.82,47.66L117.56,42.92L121.38,42.92L116.46,48.52L121.38,54L117.62,54L113.82,49.38L113.82,54ZM122.38,46.16C122.38,45.2 122.787,44.393 123.6,43.74C124.413,43.087 125.493,42.76 126.84,42.76C128.187,42.76 129.267,43.083 130.08,43.73C130.893,44.377 131.327,45.253 131.38,46.36L128.5,46.36C128.42,45.427 127.847,44.96 126.78,44.96C126.247,44.96 125.833,45.067 125.54,45.28C125.247,45.493 125.1,45.787 125.1,46.16C125.1,46.533 125.32,46.827 125.76,47.04C126.2,47.253 126.733,47.42 127.36,47.54C127.987,47.66 128.61,47.81 129.23,47.99C129.85,48.17 130.38,48.49 130.82,48.95C131.26,49.41 131.48,50.02 131.48,50.78C131.48,51.78 131.057,52.593 130.21,53.22C129.363,53.847 128.283,54.16 126.97,54.16C125.657,54.16 124.58,53.85 123.74,53.23C122.9,52.61 122.44,51.72 122.36,50.56L125.24,50.56C125.347,51.493 125.94,51.96 127.02,51.96C127.54,51.96 127.96,51.843 128.28,51.61C128.6,51.377 128.76,51.07 128.76,50.69C128.76,50.31 128.54,50.01 128.1,49.79C127.66,49.57 127.127,49.4 126.5,49.28C125.873,49.16 125.25,49.013 124.63,48.84C124.01,48.667 123.48,48.357 123.04,47.91C122.6,47.463 122.38,46.88 122.38,46.16Z" style="fill:rgb(68,42,185);"/>
    <path d="M78.979,0C78.955,0 78.931,0 78.907,0.001L57.856,0.001C55.594,0.001 53.574,1.115 52.583,2.908C52.524,3.013 52.485,3.124 52.461,3.234L45.106,19.393C45.096,19.415 45.086,19.439 45.078,19.461C44.697,20.146 44.482,20.917 44.482,21.731L44.482,23.239C44.482,26.09 47.11,28.41 50.345,28.41L71.106,28.41C71.126,28.41 71.146,28.41 71.165,28.409C71.268,28.427 71.37,28.437 71.473,28.437C72.055,28.437 72.604,28.131 72.833,27.625L80.344,11.12C80.644,10.458 80.281,9.705 79.527,9.439C78.777,9.167 77.924,9.495 77.624,10.158L70.494,25.825L50.344,25.825C48.726,25.825 47.414,24.665 47.414,23.24L47.414,21.732C47.414,20.306 48.727,19.148 50.344,19.148L71.105,19.148C71.139,19.148 71.173,19.147 71.205,19.144C71.211,19.144 71.215,19.144 71.22,19.143C71.548,19.121 71.844,19.004 72.075,18.823L72.076,18.822L72.076,18.821C72.101,18.801 72.127,18.78 72.15,18.759C72.153,18.756 72.155,18.754 72.158,18.753C72.18,18.731 72.202,18.71 72.224,18.688L72.225,18.687C72.247,18.663 72.268,18.64 72.29,18.615C72.291,18.612 72.292,18.611 72.295,18.609C72.365,18.523 72.423,18.429 72.468,18.329L80.322,1.823C80.385,1.698 80.427,1.561 80.442,1.418L80.442,1.409C80.445,1.39 80.447,1.372 80.447,1.354L80.447,1.342C80.447,1.326 80.448,1.311 80.448,1.295C80.448,1.036 80.361,0.794 80.213,0.592C80.212,0.589 80.209,0.586 80.206,0.583C80.198,0.571 80.19,0.56 80.181,0.55C80.176,0.543 80.17,0.535 80.163,0.528C80.156,0.519 80.147,0.511 80.14,0.502C80.133,0.495 80.126,0.486 80.119,0.478C80.114,0.472 80.107,0.465 80.1,0.459C80.09,0.447 80.08,0.438 80.069,0.428C80.066,0.425 80.065,0.423 80.062,0.42C80.048,0.407 80.034,0.393 80.018,0.381C80.018,0.381 80.017,0.379 80.015,0.379C79.983,0.351 79.951,0.325 79.916,0.299C79.911,0.296 79.909,0.294 79.904,0.291C79.89,0.281 79.876,0.272 79.861,0.262C79.852,0.257 79.844,0.25 79.836,0.246C79.826,0.239 79.816,0.233 79.806,0.227C79.685,0.155 79.552,0.098 79.41,0.06C79.389,0.053 79.369,0.049 79.348,0.044L79.347,0.044C79.224,0.015 79.099,0.001 78.977,0.001L78.979,0ZM57.856,2.586L76.779,2.586L70.131,16.562L50.344,16.562C50.067,16.562 49.796,16.579 49.529,16.611L55.338,3.849C55.338,3.848 55.338,3.848 55.339,3.846C55.866,3.065 56.81,2.586 57.856,2.586L57.856,2.586ZM50.13,20.628C49.724,20.628 49.397,20.918 49.397,21.275C49.397,21.632 49.724,21.922 50.13,21.922L70.099,21.922C70.502,21.922 70.832,21.632 70.832,21.275C70.832,20.918 70.502,20.628 70.099,20.628L50.13,20.628ZM50.13,23.026C49.724,23.026 49.397,23.316 49.397,23.673C49.397,24.03 49.724,24.32 50.13,24.32L70.099,24.32C70.502,24.32 70.832,24.03 70.832,23.673C70.832,23.316 70.502,23.026 70.099,23.026L50.13,23.026Z" style="fill:rgb(68,42,185);"/>
</svg>
