<?xml version="1.0" encoding="UTF-8"?>
<svg width="119px" height="59px" viewBox="0 0 119 59" version="1.1" xmlns="http://www.w3.org/2000/svg"
     xmlns:xlink="http://www.w3.org/1999/xlink">
    <!-- Generator: Sketch 51.2 (57519) - http://www.bohemiancoding.com/sketch -->
    <title>Artboard</title>
    <desc>Created with Sketch.</desc>
    <defs></defs>
    <g id="Artboard" stroke="none" stroke-width="1" fill="none" fill-rule="evenodd">
        <g id="Group" fill="#442AB9">
            <g id="Group-4" transform="translate(43.000000, 0.000000)">
                <g>
                    <path
                        d="M31.3116556,3.81512195 L31.2076332,3.71014829 C31.0697005,3.57141659 30.8300365,3.36331902 30.4524398,3.36331902 L6.73808462,3.36331902 L6.63406223,2.77463415 C6.39439832,1.17968195 5.01965308,0 3.40295269,0 L0.99714854,0 C0.413798314,0 0,0.451802927 0,1.00626732 C0,1.56073171 0.447708697,2.01253463 0.99714854,2.01253463 L3.43686308,2.01253463 C4.05641493,2.01253463 4.57194439,2.46387512 4.67413378,3.05302244 L6.73625163,15.5730966 C6.73625163,15.6776078 6.77016201,15.7807317 6.80407239,15.8510224 L7.1477587,18.0009015 C7.45753463,19.9084624 9.14205578,21.33 11.0323305,21.33 L26.9793751,21.33 C27.5631836,21.33 27.9765237,20.8781971 27.9765237,20.3237327 C27.9765237,19.7692683 27.5292732,19.3174654 26.9793751,19.3174654 L10.9979618,19.3174654 C10.0351819,19.3174654 9.24561992,18.6238068 9.10768715,17.7225132 L8.90193362,16.5775141 L27.4609942,16.5775141 C27.6667478,16.6117346 27.8385909,16.6117346 28.0104341,16.5086107 C28.2505562,16.3694166 28.4581428,16.127561 28.5259635,15.8491727 L31.4133868,4.71641561 C31.5513195,4.40380683 31.4834988,4.09351024 31.3116556,3.81512195 Z M29.2133361,5.44429463 L26.807532,14.6010498 L8.59215769,14.6010498 L7.11384832,5.44429463 L29.2133361,5.44429463 Z"
                        id="Fill-1"></path>
                    <path
                        d="M11.6804725,21.33 C9.72151106,21.33 8.12571429,22.9257968 8.12571429,24.8847582 C8.12571429,26.8437196 9.72151106,28.44 11.6804725,28.44 C13.6394339,28.44 15.2357143,26.8437196 15.2357143,24.8847582 C15.2357143,22.9238625 13.6394339,21.33 11.6804725,21.33 Z M11.6804725,23.4678841 C12.4778873,23.4678841 13.0596278,24.0839584 13.0596278,24.8828239 C13.0596278,25.6439706 12.4058347,26.2977637 11.644688,26.2977637 C10.8835413,26.2977637 10.2655327,25.6439706 10.2655327,24.8828239 C10.2655327,24.1216772 10.8835413,23.4678841 11.6804725,23.4678841 Z"
                        id="Fill-2"></path>
                    <path
                        d="M22.8535714,21.33 C20.8947432,21.33 19.2985714,22.9182353 19.2985714,24.8679144 C19.2985714,26.8156684 20.8589611,28.44 22.8535714,28.44 C24.8481817,28.44 26.4085714,26.8512834 26.4085714,24.9016043 C26.4085714,22.9543316 24.8123996,21.33 22.8535714,21.33 Z M22.8177893,23.457754 C23.6146664,23.457754 24.2326329,24.0709091 24.2326329,24.8659893 C24.2326329,25.6235294 23.5788843,26.2742246 22.8177893,26.2742246 C22.0566944,26.2742246 21.4029457,25.6235294 21.4029457,24.8659893 C21.3671636,24.1084492 22.0184946,23.457754 22.8177893,23.457754 Z"
                        id="Fill-3"></path>
                </g>
            </g>
            <path
                d="M10.14,48.94 C10.14,49.6600036 9.9600018,50.3233303 9.6,50.93 C9.2399982,51.5366697 8.7066702,52.0233315 8,52.39 C7.2933298,52.7566685 6.4333384,52.94 5.42,52.94 C4.419995,52.94 3.5266706,52.7700017 2.74,52.43 C1.9533294,52.0899983 1.3233357,51.6000032 0.85,50.96 C0.3766643,50.3199968 0.106667,49.5733376 0.04,48.72 L3.04,48.72 C3.106667,49.2933362 3.3366647,49.7699981 3.73,50.15 C4.1233353,50.5300019 4.6466634,50.72 5.3,50.72 C5.8866696,50.72 6.3366651,50.5633349 6.65,50.25 C6.9633349,49.9366651 7.12,49.5333358 7.12,49.04 C7.12,48.5999978 6.9933346,48.2366681 6.74,47.95 C6.4866654,47.6633319 6.1666686,47.4333342 5.78,47.26 C5.3933314,47.0866658 4.8600034,46.8866678 4.18,46.66 C3.2999956,46.3666652 2.5800028,46.0766681 2.02,45.79 C1.4599972,45.5033319 0.9833353,45.0866694 0.59,44.54 C0.1966647,43.9933306 0,43.2800044 0,42.4 C0,41.1866606 0.4366623,40.2300035 1.31,39.53 C2.1833377,38.8299965 3.3399928,38.48 4.78,38.48 C6.2733408,38.48 7.4633289,38.8399964 8.35,39.56 C9.2366711,40.2800036 9.7399994,41.239994 9.86,42.44 L6.82,42.44 C6.7399996,41.9333308 6.5266684,41.5166683 6.18,41.19 C5.8333316,40.8633317 5.360003,40.7 4.76,40.7 C4.2399974,40.7 3.8200016,40.8366653 3.5,41.11 C3.1799984,41.3833347 3.02,41.7799974 3.02,42.3 C3.02,42.7133354 3.1433321,43.0566653 3.39,43.33 C3.6366679,43.6033347 3.9499981,43.8266658 4.33,44 C4.7100019,44.1733342 5.2266634,44.3666656 5.88,44.58 C6.7866712,44.9000016 7.5233305,45.1999986 8.09,45.48 C8.6566695,45.7600014 9.139998,46.1799972 9.54,46.74 C9.940002,47.3000028 10.14,48.0333288 10.14,48.94 Z M18.82,41.56 C20.1000064,41.56 21.1199962,41.9799958 21.88,42.82 C22.6400038,43.6600042 23.02,44.8399924 23.02,46.36 L23.02,52.8 L20.22,52.8 L20.22,46.68 C20.22,45.7999956 19.9933356,45.1166691 19.54,44.63 C19.0866644,44.1433309 18.4666706,43.9 17.68,43.9 C16.879996,43.9 16.2400024,44.1599974 15.76,44.68 C15.2799976,45.2000026 15.04,45.9466618 15.04,46.92 L15.04,52.8 L12.22,52.8 L12.22,38 L15.04,38 L15.04,43.94 C15.3333348,43.1933296 15.8166633,42.6100021 16.49,42.19 C17.1633367,41.7699979 17.9399956,41.56 18.82,41.56 Z M29.84,41.58 C30.773338,41.58 31.57333,41.7999978 32.24,42.24 C32.90667,42.6800022 33.3799986,43.2733296 33.66,44.02 L33.66,41.72 L36.46,41.72 L36.46,52.8 L33.66,52.8 L33.66,50.48 C33.3799986,51.2266704 32.90667,51.8233311 32.24,52.27 C31.57333,52.7166689 30.773338,52.94 29.84,52.94 C28.906662,52.94 28.0666704,52.7133356 27.32,52.26 C26.5733296,51.8066644 25.9900021,51.1500043 25.57,50.29 C25.1499979,49.4299957 24.94,48.4200058 24.94,47.26 C24.94,46.0999942 25.1499979,45.0900043 25.57,44.23 C25.9900021,43.3699957 26.5733296,42.7133356 27.32,42.26 C28.0666704,41.8066644 28.906662,41.58 29.84,41.58 Z M30.72,44.04 C29.8399956,44.04 29.133336,44.3266638 28.6,44.9 C28.066664,45.4733362 27.8,46.259995 27.8,47.26 C27.8,48.260005 28.066664,49.0433305 28.6,49.61 C29.133336,50.1766695 29.8399956,50.46 30.72,50.46 C31.5733376,50.46 32.2766639,50.1700029 32.83,49.59 C33.3833361,49.0099971 33.66,48.2333382 33.66,47.26 C33.66,46.2733284 33.3833361,45.4900029 32.83,44.91 C32.2766639,44.3299971 31.5733376,44.04 30.72,44.04 Z M45.64,41.58 C46.573338,41.58 47.4133296,41.8066644 48.16,42.26 C48.9066704,42.7133356 49.4899979,43.3699957 49.91,44.23 C50.3300021,45.0900043 50.54,46.0999942 50.54,47.26 C50.54,48.4200058 50.3300021,49.4299957 49.91,50.29 C49.4899979,51.1500043 48.9066704,51.8066644 48.16,52.26 C47.4133296,52.7133356 46.573338,52.94 45.64,52.94 C44.706662,52.94 43.9100033,52.7166689 43.25,52.27 C42.5899967,51.8233311 42.1200014,51.2266704 41.84,50.48 L41.84,58.08 L39.02,58.08 L39.02,41.72 L41.84,41.72 L41.84,44.02 C42.1200014,43.2733296 42.5899967,42.6800022 43.25,42.24 C43.9100033,41.7999978 44.706662,41.58 45.64,41.58 Z M44.76,44.04 C43.9066624,44.04 43.2033361,44.3299971 42.65,44.91 C42.0966639,45.4900029 41.82,46.2733284 41.82,47.26 C41.82,48.2333382 42.0966639,49.0099971 42.65,49.59 C43.2033361,50.1700029 43.9066624,50.46 44.76,50.46 C45.6400044,50.46 46.346664,50.1766695 46.88,49.61 C47.413336,49.0433305 47.68,48.260005 47.68,47.26 C47.68,46.259995 47.413336,45.4733362 46.88,44.9 C46.346664,44.3266638 45.6400044,44.04 44.76,44.04 Z M62.96,46.84 C62.96,47.1200014 62.926667,47.4399982 62.86,47.8 L54.74,47.8 C54.7800002,48.7866716 55.0466642,49.513331 55.54,49.98 C56.0333358,50.446669 56.646663,50.68 57.38,50.68 C58.0333366,50.68 58.5766645,50.5200016 59.01,50.2 C59.4433355,49.8799984 59.7199994,49.4466694 59.84,48.9 L62.82,48.9 C62.6733326,49.6733372 62.3600024,50.3666636 61.88,50.98 C61.3999976,51.5933364 60.7833371,52.0733316 60.03,52.42 C59.2766629,52.7666684 58.4400046,52.94 57.52,52.94 C56.4399946,52.94 55.4800042,52.7100023 54.64,52.25 C53.7999958,51.7899977 53.146669,51.1333376 52.68,50.28 C52.213331,49.4266624 51.98,48.4200058 51.98,47.26 C51.98,46.0999942 52.213331,45.0900043 52.68,44.23 C53.146669,43.3699957 53.7999958,42.7133356 54.64,42.26 C55.4800042,41.8066644 56.4399946,41.58 57.52,41.58 C58.6133388,41.58 59.5699959,41.8066644 60.39,42.26 C61.2100041,42.7133356 61.8433311,43.3366627 62.29,44.13 C62.7366689,44.9233373 62.96,45.8266616 62.96,46.84 Z M60.12,46.56 C60.1600002,45.6533288 59.9233359,44.966669 59.41,44.5 C58.8966641,44.033331 58.2666704,43.8 57.52,43.8 C56.7599962,43.8 56.1200026,44.033331 55.6,44.5 C55.0799974,44.966669 54.7933336,45.6533288 54.74,46.56 L60.12,46.56 Z M79.02,48.94 C79.02,49.6600036 78.8400018,50.3233303 78.48,50.93 C78.1199982,51.5366697 77.5866702,52.0233315 76.88,52.39 C76.1733298,52.7566685 75.3133384,52.94 74.3,52.94 C73.299995,52.94 72.4066706,52.7700017 71.62,52.43 C70.8333294,52.0899983 70.2033357,51.6000032 69.73,50.96 C69.2566643,50.3199968 68.986667,49.5733376 68.92,48.72 L71.92,48.72 C71.986667,49.2933362 72.2166647,49.7699981 72.61,50.15 C73.0033353,50.5300019 73.5266634,50.72 74.18,50.72 C74.7666696,50.72 75.2166651,50.5633349 75.53,50.25 C75.8433349,49.9366651 76,49.5333358 76,49.04 C76,48.5999978 75.8733346,48.2366681 75.62,47.95 C75.3666654,47.6633319 75.0466686,47.4333342 74.66,47.26 C74.2733314,47.0866658 73.7400034,46.8866678 73.06,46.66 C72.1799956,46.3666652 71.4600028,46.0766681 70.9,45.79 C70.3399972,45.5033319 69.8633353,45.0866694 69.47,44.54 C69.0766647,43.9933306 68.88,43.2800044 68.88,42.4 C68.88,41.1866606 69.3166623,40.2300035 70.19,39.53 C71.0633377,38.8299965 72.2199928,38.48 73.66,38.48 C75.1533408,38.48 76.3433289,38.8399964 77.23,39.56 C78.1166711,40.2800036 78.6199994,41.239994 78.74,42.44 L75.7,42.44 C75.6199996,41.9333308 75.4066684,41.5166683 75.06,41.19 C74.7133316,40.8633317 74.240003,40.7 73.64,40.7 C73.1199974,40.7 72.7000016,40.8366653 72.38,41.11 C72.0599984,41.3833347 71.9,41.7799974 71.9,42.3 C71.9,42.7133354 72.0233321,43.0566653 72.27,43.33 C72.5166679,43.6033347 72.8299981,43.8266658 73.21,44 C73.5900019,44.1733342 74.1066634,44.3666656 74.76,44.58 C75.6666712,44.9000016 76.4033305,45.1999986 76.97,45.48 C77.5366695,45.7600014 78.019998,46.1799972 78.42,46.74 C78.820002,47.3000028 79.02,48.0333288 79.02,48.94 Z M87.7,41.56 C88.9800064,41.56 89.9999962,41.9799958 90.76,42.82 C91.5200038,43.6600042 91.9,44.8399924 91.9,46.36 L91.9,52.8 L89.1,52.8 L89.1,46.68 C89.1,45.7999956 88.8733356,45.1166691 88.42,44.63 C87.9666644,44.1433309 87.3466706,43.9 86.56,43.9 C85.759996,43.9 85.1200024,44.1599974 84.64,44.68 C84.1599976,45.2000026 83.92,45.9466618 83.92,46.92 L83.92,52.8 L81.1,52.8 L81.1,38 L83.92,38 L83.92,43.94 C84.2133348,43.1933296 84.6966633,42.6100021 85.37,42.19 C86.0433367,41.7699979 86.8199956,41.56 87.7,41.56 Z M99.5,41.58 C100.580005,41.58 101.549996,41.8066644 102.41,42.26 C103.270004,42.7133356 103.946664,43.3699957 104.44,44.23 C104.933336,45.0900043 105.18,46.0999942 105.18,47.26 C105.18,48.4200058 104.933336,49.4266624 104.44,50.28 C103.946664,51.1333376 103.270004,51.7899977 102.41,52.25 C101.549996,52.7100023 100.580005,52.94 99.5,52.94 C98.4199946,52.94 97.4500043,52.7100023 96.59,52.25 C95.7299957,51.7899977 95.0533358,51.1333376 94.56,50.28 C94.0666642,49.4266624 93.82,48.4200058 93.82,47.26 C93.82,46.0999942 94.0666642,45.0900043 94.56,44.23 C95.0533358,43.3699957 95.7299957,42.7133356 96.59,42.26 C97.4500043,41.8066644 98.4199946,41.58 99.5,41.58 Z M99.5,44.02 C98.7133294,44.02 98.0466694,44.2966639 97.5,44.85 C96.9533306,45.4033361 96.68,46.2066614 96.68,47.26 C96.68,48.3133386 96.9533306,49.1166639 97.5,49.67 C98.0466694,50.2233361 98.7133294,50.5 99.5,50.5 C100.286671,50.5 100.953331,50.2233361 101.5,49.67 C102.046669,49.1166639 102.32,48.3133386 102.32,47.26 C102.32,46.2066614 102.046669,45.4033361 101.5,44.85 C100.953331,44.2966639 100.286671,44.02 99.5,44.02 Z M113.8,41.58 C114.733338,41.58 115.57333,41.8066644 116.32,42.26 C117.06667,42.7133356 117.649998,43.3699957 118.07,44.23 C118.490002,45.0900043 118.7,46.0999942 118.7,47.26 C118.7,48.4200058 118.490002,49.4299957 118.07,50.29 C117.649998,51.1500043 117.06667,51.8066644 116.32,52.26 C115.57333,52.7133356 114.733338,52.94 113.8,52.94 C112.866662,52.94 112.070003,52.7166689 111.41,52.27 C110.749997,51.8233311 110.280001,51.2266704 110,50.48 L110,58.08 L107.18,58.08 L107.18,41.72 L110,41.72 L110,44.02 C110.280001,43.2733296 110.749997,42.6800022 111.41,42.24 C112.070003,41.7999978 112.866662,41.58 113.8,41.58 Z M112.92,44.04 C112.066662,44.04 111.363336,44.3299971 110.81,44.91 C110.256664,45.4900029 109.98,46.2733284 109.98,47.26 C109.98,48.2333382 110.256664,49.0099971 110.81,49.59 C111.363336,50.1700029 112.066662,50.46 112.92,50.46 C113.800004,50.46 114.506664,50.1766695 115.04,49.61 C115.573336,49.0433305 115.84,48.260005 115.84,47.26 C115.84,46.259995 115.573336,45.4733362 115.04,44.9 C114.506664,44.3266638 113.800004,44.04 112.92,44.04 Z"
                id="Shape-Shop"></path>
        </g>
    </g>
</svg>